# xmcd CD database file
#
# Track frame offsets:
#	150
#	12764
#	23596
#	35915
#	52537
#	64982
#	79495
#	93149
#	106170
#	117306
#	141478
#	154572
#	183778
#
# Disc length: 2820 seconds
#
# Revision: 1
# Processed by: cddbd v1.5.1PL0 Copyright (c) Steve Scherf et al.
# Submitted via: CDex 1.51
#
DISCID=9c0b020d
DTITLE=Various Artist - Simply Salsa (Salsa For Lovers)
DYEAR=2004
DGENRE=Salsa
TTITLE0=Cuarteto Mayari - Besame Mas
TTITLE1=Vincentico Valdes Y La Sonora Matancera - Los Aretes De La Luna
TTITLE2=Nelson Pinedo - Micaela
TTITLE3=Lola Flores - Mora Gitana
TTITLE4=Ramito - Sabor Boricua
TTITLE5=Arsenion Rodriguez -Si Me Voy
TTITLE6=Charlie Palmieri - I've Got You Under My Skin
TTITLE7=La Plata Sextette - Guantanamera
TTITLE8=Pupi Campo - Mary Ann
TTITLE9=Ritmo Alegria - Flautero Y Yo
TTITLE10=Celia Cruz - Melau De Cana
TTITLE11=Ritmo Alegria - Boliviana
TTITLE12=Pat Martino - How Insensitive
EXTD=YEAR: 2004
EXTT0=
EXTT1=
EXTT2=
EXTT3=
EXTT4=
EXTT5=
EXTT6=
EXTT7=
EXTT8=
EXTT9=
EXTT10=
EXTT11=
EXTT12=
PLAYORDER=
